<svg xmlns="http://www.w3.org/2000/svg" width="22.936" height="27.409" viewBox="0 0 22.936 27.409">
  <g id="recuperar_nip_icon_small_hover" transform="translate(-330.757 -312.446)">
    <path id="Path_3862" data-name="Path 3862" d="M342.214,339.285l-.242-.133c-4.881-2.684-8.177-5.889-9.807-9.525a11.24,11.24,0,0,1,2.87-12.771,14.928,14.928,0,0,1,3.213-1.978c.745-.372,1.484-.716,2.227-1.06.508-.234,1.013-.469,1.521-.713l.219-.1.218.1c.523.251,1.041.491,1.559.731.733.338,1.462.677,2.2,1.042a14.9,14.9,0,0,1,3.236,1.987,11.241,11.241,0,0,1,2.859,12.763c-1.621,3.625-4.928,6.829-9.828,9.524Z" fill="none" stroke="#0077d5" stroke-linecap="round" stroke-width="1"/>
    <path id="Path_1651" data-name="Path 1651" d="M346.535,323.11" transform="translate(2.588 1.715)" fill="#fff" stroke="#0077d5" stroke-linecap="round" stroke-linejoin="round" stroke-width="0.608"/>
    <g id="Group_93" data-name="Group 93" transform="translate(334.462 315.773)">
      <path id="Path_1652" data-name="Path 1652" d="M334,324.144v-1.17a7.6,7.6,0,0,1,14.066-4" transform="translate(-334 -315.371)" fill="none" stroke="#0077d5" stroke-linecap="round" stroke-width="1"/>
      <line id="Line_10" data-name="Line 10" x2="1.365" transform="translate(12.868 3.608)" fill="none" stroke="#0077d5" stroke-linecap="round" stroke-width="1"/>
      <line id="Line_11" data-name="Line 11" y2="1.365" transform="translate(14.232 2.243)" fill="none" stroke="#0077d5" stroke-linecap="round" stroke-width="1"/>
    </g>
    <g id="Group_704" data-name="Group 704" transform="translate(334.485 318.273)">
      <path id="Path_1651-2" data-name="Path 1651" d="M346.735,322.238" transform="translate(-331.862 -316.706)" fill="#fff" stroke="#0077d5" stroke-linecap="round" stroke-linejoin="round" stroke-width="1.107"/>
      <path id="Path_1657" data-name="Path 1657" d="M336.171,324.338v-1.644a5.056,5.056,0,1,1,10.109,0v1.58" transform="translate(-333.654 -317.508)" fill="none" stroke="#0077d5" stroke-linecap="round" stroke-width="1"/>
      <path id="Rectangle_48" data-name="Rectangle 48" d="M336.651,323.348h10.176a2.635,2.635,0,0,1,2.632,2.637v5.438a2.636,2.636,0,0,1-2.632,2.639H336.651a2.635,2.635,0,0,1-2.632-2.639v-5.438A2.634,2.634,0,0,1,336.651,323.348Z" transform="translate(-334.019 -316.517)" fill="none" stroke="#0077d5" stroke-linecap="round" stroke-linejoin="round" stroke-width="1"/>
      <path id="Path_1653" data-name="Path 1653" d="M341.638,327.615a1.749,1.749,0,0,0-.393-.25c-.089-.046-.178-.089-.267-.132-.063-.029-.125-.06-.189-.091l-.026-.014-.027.014c-.062.03-.123.061-.185.089l-.271.133a1.847,1.847,0,0,0-.391.25,1.456,1.456,0,0,0-.349,1.611,2.512,2.512,0,0,0,1,1.083v1.439a.222.222,0,1,0,.444,0v-1.439a2.522,2.522,0,0,0,1-1.085A1.453,1.453,0,0,0,341.638,327.615Z" transform="translate(-333.101 -315.877)" fill="none" stroke="#0077d5" stroke-linecap="round" stroke-linejoin="round" stroke-width="1"/>
      <path id="Path_1654" data-name="Path 1654" d="M338.09,325.806l.027.753h-.343l.028-.753-.642.4L337,325.9l.66-.336-.656-.338.161-.3.641.4-.026-.747h.339l-.026.75.637-.4.167.3-.664.342.664.336-.17.311Z" transform="translate(-333.514 -316.311)" fill="#0077d5"/>
      <path id="Path_1655" data-name="Path 1655" d="M341,325.806l.026.753h-.343l.029-.753-.643.4-.161-.315.659-.336-.656-.338.163-.3.641.4-.027-.747h.34l-.027.75.639-.4.167.3-.664.342.664.336-.171.311Z" transform="translate(-333.02 -316.311)" fill="#0077d5"/>
      <path id="Path_1656" data-name="Path 1656" d="M343.913,325.806l.027.753H343.6l.028-.753-.643.4-.161-.315.66-.336-.657-.338.163-.3.641.4-.027-.747h.34l-.026.75.637-.4.167.3-.664.342.664.336-.17.311Z" transform="translate(-332.526 -316.311)" fill="#0077d5"/>
    </g>
  </g>
</svg>
